<svg xmlns="http://www.w3.org/2000/svg" viewBox=".8 .8 198.4 94.38">
   <defs>
      <clipPath id="a">
         <path d="M36 70.2813h72V36H36Z"/>
      </clipPath>
   </defs>
   <g clip-path="url(#a)" style="clip-rule:nonzero;fill:#f0f0ff;fill-opacity:1" transform="matrix(2.75556 0 0 2.75556 -98.4 -98.4)">
      <path d="M93.9531 63.0469c-.8281-.3086-1.6133-.7227-2.371-1.2344-.7579-.5117-1.4688-1.0898-2.1368-1.7344a30.1902 30.1902 0 0 1-1.8672-1.9687c.5313-.5782 1.1328-1.211 1.8008-1.8985a21.291 21.291 0 0 1 2.1016-1.9062c.7343-.5742 1.5156-1.0547 2.336-1.4336.8241-.375 1.6796-.5664 2.5702-.5664 1.6485 0 2.9453.5547 3.9063 1.668.953 1.1132 1.4336 2.4453 1.4336 4.0039 0 1.5547-.4454 2.8672-1.336 3.9375-.8867 1.0664-2.1601 1.5976-3.8008 1.5976-.9375 0-1.8164-.1523-2.6367-.4648m-27.1289-1.0703c-.9375-1.0196-1.4023-2.332-1.4023-3.9375 0-1.4649.457-2.7852 1.3672-3.9649.914-1.1797 2.1445-1.7695 3.703-1.7695.8477 0 1.6915.1914 2.5352.5664.8477.3789 1.6602.8594 2.4375 1.4336a22.2307 22.2307 0 0 1 2.2383 1.9062c.711.6875 1.332 1.3203 1.8672 1.8985-.5351.621-1.1367 1.2578-1.8047 1.9023a16.047 16.047 0 0 1-2.1328 1.7344 12.5361 12.5361 0 0 1-2.4062 1.2695c-.8438.332-1.6875.4961-2.5352.4961-1.6445 0-2.9336-.5078-3.8672-1.5351m7.9063 7.6445C75.9102 69.1992 77 68.6406 78 67.953c1-.6914 1.9492-1.4922 2.836-2.4062.8867-.9102 1.8046-1.8555 2.7382-2.836a44.5002 44.5002 0 0 0 2.668 2.836c.9375.914 1.9258 1.7148 2.9687 2.4062a15.4854 15.4854 0 0 0 3.3711 1.668c1.2032.4219 2.4922.6289 3.8711.6289 1.7774 0 3.3906-.3203 4.8399-.961 1.4453-.6484 2.6562-1.539 3.6367-2.6718.9805-1.1367 1.7344-2.457 2.2695-3.9727.5313-1.5117.8008-3.1367.8008-4.8672 0-1.7343-.2695-3.3359-.8008-4.8046-.5351-1.4688-1.289-2.7461-2.2695-3.8399-.9805-1.086-2.1797-1.9414-3.6055-2.5625-1.4219-.625-3.0273-.9375-4.8047-.9375-1.4218 0-2.746.2227-3.9687.664-1.2266.4493-2.3633 1.0352-3.4063 1.7696-1.043.7344-2.0234 1.5938-2.9336 2.5703a67.665 67.665 0 0 0-2.6367 3c-.8945-1.0664-1.789-2.0781-2.7031-3.0351-.914-.957-1.8906-1.8008-2.9375-2.5352-1.0469-.7344-2.1797-1.3203-3.4023-1.7695-1.2266-.4414-2.5704-.664-4.0391-.664-1.7813 0-3.379.3241-4.8047.9687-1.4258.6445-2.625 1.5117-3.6055 2.6015-.9765 1.0899-1.7226 2.379-2.2343 3.8672-.5118 1.4922-.7657 3.1055-.7657 4.8399 0 1.7343.2657 3.3593.8008 4.871.5352 1.5118 1.3086 2.8126 2.336 3.8985 1.0234 1.0898 2.246 1.961 3.668 2.6094 1.4257.6406 3.0468.9609 4.875.9609 1.4648 0 2.789-.207 3.9687-.629" style="fill:#1767a;fill-opacity:1;fill-rule:nonzero;stroke:none"/>
      <path d="m45.2734 41.621-1.3437 7.6368.0937.0977c.9297-.9297 1.922-1.5938 2.9805-1.9961 1.0547-.3985 2.2578-.5977 3.6016-.5977 1.664 0 3.1406.3047 4.4218.9102 1.2774.6094 2.3594 1.4258 3.2422 2.4492.8828 1.0273 1.5508 2.2344 2.0196 3.6289.4609 1.3906.6953 2.875.6953 4.4414 0 1.7305-.3399 3.3399-1.0078 4.8281-.6758 1.4883-1.5782 2.7813-2.7149 3.8672-1.1367 1.0899-2.461 1.9297-3.9648 2.5195-1.5078.5938-3.1094.875-4.8086.8438-1.629 0-3.1914-.2188-4.6797-.6484-1.4922-.4336-2.8125-1.0977-3.9648-1.9961-1.1524-.8946-2.0743-2.0078-2.7618-3.336-.6914-1.328-1.0508-2.875-1.082-4.6367h6.8242c.1563 1.539.7344 2.7617 1.7266 3.6719.996.918 2.2578 1.371 3.7969 1.371.8984 0 1.703-.1835 2.4257-.5507.7227-.3672 1.3282-.8477 1.8243-1.4414.5-.5898.8828-1.2813 1.1562-2.0664.2734-.7813.4063-1.5938.4063-2.4258 0-.8672-.129-1.6836-.3829-2.4492-.2578-.7695-.6406-1.4414-1.1523-2.0156-.5156-.5782-1.125-1.0274-1.8281-1.3438-.7032-.3242-1.5196-.4844-2.4492-.4844-1.2149 0-2.211.2188-2.9805.6485-.7656.4336-1.4883 1.1133-2.1602 2.043h-6.1523L40.371 36h18.7852v5.621z" style="fill:#f0f0ff;fill-opacity:1;fill-rule:nonzero;stroke:none"/>
   </g>
</svg>