<svg xmlns="http://www.w3.org/2000/svg" xml:space="preserve" id="Layer_1" x="0" y="0" version="1.1" viewBox="95 67.72 321.6 370.56">
	<style>    .st7{fill-rule:evenodd;clip-rule:evenodd;fill:#fff}	</style>
	<path d="m95 362 2-3 104-198 1-2-46-87c-4-7-15-5-16 3L95 362z" style="fill:#ffc24a"></path>
	<path d="m235 224 34-35-34-65c-3-7-12-7-15 0l-19 35v3l34 62z" style="fill:#f4bd62"></path>
	<path d="m95 362 1-1 3-1 134-134 2-4-34-64z" style="fill:#f6820c"></path>
	<path d="m240 429 121-67-35-213c-1-7-9-9-14-5L95 362l120 67c8 5 17 5 25 0" style="fill:#fde068"></path>
	<path d="m360 361-35-211c-1-7-8-9-12-5L96 362l119 66c8 4 17 4 24 0l121-67z" style="fill:#fcca3f"></path>
	<path d="M240 427c-8 5-17 5-25 0L96 361l-1 1 120 67c8 5 17 5 25 0l121-67-1-2-120 67z" style="fill:#eeab37"></path>
	<circle cx="326.7" cy="347.6" r="78.7" style="fill-rule:evenodd;clip-rule:evenodd;fill:#757575" transform="rotate(-81 327 348)"></circle>
	<path d="m291 326 35-17 36 17v18l-36-18-35 18z" class="st7"></path>
	<path d="m291 357 35-18 36 18v18l-36-18-35 18z" class="st7"></path>
	<path d="m326 374 10-4 18 8-28 13z" class="st7"></path>
</svg>