<svg xmlns="http://www.w3.org/2000/svg" fill="none" viewBox="0 0 259.84 84">
    <path fill="#4c7dd1" d="M83.37 59c-.31 0-.6-.11-.85-.33a1.25 1.25 0 0 1-.32-.84v-30.5c0-.35.1-.63.32-.85.22-.25.5-.38.85-.38h21.85c.35 0 .63.13.85.38.25.22.38.5.38.84v4.98c0 .35-.13.63-.38.85-.22.22-.5.33-.84.33H90.83V40h13.44c.35 0 .63.13.85.38.25.22.38.5.38.84v4.99c0 .34-.13.62-.38.84-.22.22-.5.33-.84.33H90.83v10.44c0 .3-.1.59-.33.84-.22.22-.5.33-.84.33h-6.3ZM124.79 59.47c-4.45 0-7.96-1.08-10.53-3.24-2.57-2.16-3.93-5.35-4.09-9.54-.03-.88-.05-2.23-.05-4.05 0-1.81.02-3.18.05-4.09.13-4.13 1.49-7.31 4.09-9.54 2.63-2.25 6.14-3.38 10.53-3.38 4.35 0 7.83 1.13 10.43 3.38 2.63 2.23 4.01 5.4 4.14 9.54.06 1.82.1 3.19.1 4.1 0 .93-.04 2.28-.1 4.04-.16 4.2-1.52 7.38-4.1 9.54-2.53 2.16-6.02 3.24-10.47 3.24Zm0-7.05c1.63 0 2.93-.49 3.9-1.46.97-1 1.49-2.52 1.55-4.56.06-1.81.1-3.11.1-3.9 0-.78-.04-2.05-.1-3.8-.06-2.04-.58-3.54-1.55-4.52-.97-1-2.27-1.5-3.9-1.5-1.66 0-2.98.5-3.95 1.5-.97.98-1.49 2.48-1.55 4.52a116 116 0 0 0-.05 3.8c0 1.7.02 3 .05 3.9.06 2.04.58 3.56 1.55 4.56a5.33 5.33 0 0 0 3.95 1.46ZM145.93 59c-.31 0-.6-.11-.85-.33a1.25 1.25 0 0 1-.33-.84v-30.5c0-.35.11-.63.33-.85.22-.25.5-.38.85-.38h12.92c4.14 0 7.37.94 9.69 2.82 2.35 1.88 3.52 4.53 3.52 7.94 0 2.2-.52 4.06-1.55 5.6a9.96 9.96 0 0 1-4.18 3.57l6.34 11.47c.1.18.14.36.14.51 0 .25-.09.49-.28.7a.96.96 0 0 1-.7.29h-6.63c-.9 0-1.55-.42-1.93-1.27l-5.17-10.2h-4.5v10.3c0 .34-.13.62-.38.84-.22.22-.5.33-.85.33h-6.44Zm12.88-18.38c1.34 0 2.36-.33 3.05-.98a3.72 3.72 0 0 0 1.08-2.82c0-1.2-.36-2.15-1.08-2.87-.69-.72-1.7-1.08-3.05-1.08h-5.22v7.75h5.22ZM178.66 59c-.35 0-.65-.11-.9-.33-.22-.22-.33-.5-.33-.84v-30.5c0-.35.11-.63.33-.85.25-.25.55-.38.9-.38h5.3c.8 0 1.35.34 1.7 1.03l8.08 14.48 8.13-14.48c.35-.69.91-1.03 1.7-1.03h5.3c.35 0 .63.13.85.38.25.22.38.5.38.84v30.5c0 .35-.13.63-.38.85-.22.22-.5.33-.84.33h-5.97c-.31 0-.6-.11-.85-.33a1.25 1.25 0 0 1-.33-.84V40.72l-5.07 9.3c-.41.72-.96 1.08-1.65 1.08h-2.54c-.62 0-1.17-.36-1.64-1.08l-5.03-9.3v17.1c0 .35-.13.63-.38.85-.21.22-.5.33-.84.33h-5.92ZM217.67 59c-.31 0-.6-.11-.85-.33a1.25 1.25 0 0 1-.33-.84V27.28c0-.35.11-.63.33-.85.25-.22.54-.33.85-.33h6.72c.35 0 .63.11.85.33.22.22.32.5.32.84v30.56c0 .3-.1.59-.32.84-.22.22-.5.33-.85.33h-6.72ZM233.14 59c-.32 0-.6-.11-.85-.33a1.25 1.25 0 0 1-.33-.84v-30.5c0-.35.11-.63.33-.85.22-.25.5-.38.85-.38h6.3c.34 0 .62.13.84.38.22.22.33.5.33.84v10.25l8.32-10.53c.34-.63.95-.94 1.83-.94h7.2c.24 0 .46.11.65.33.22.19.33.4.33.66 0 .25-.06.44-.19.56l-10.95 14.2 11.84 15.6c.13.12.2.31.2.56 0 .25-.12.49-.34.7a.96.96 0 0 1-.7.29h-7.38c-.5 0-.9-.1-1.22-.28a2.16 2.16 0 0 1-.66-.66l-8.93-11.47v11.23c0 .32-.11.6-.33.85-.22.22-.5.33-.84.33h-6.3ZM38.87 0l9.7 5.57-38.18 21.96-9.7-5.58L38.87 0ZM48.95 6.75l-37.93 21.8v11.03l37.93-21.8V6.75ZM33.7 28.28 11.1 41.27V52.3l22.6-13V28.29ZM25.03 45.72l-13.99 8.04v11.03l14-8.04V45.72ZM0 23.02l9.75 5.6v11.04L0 34.06V23.01ZM.1 35.66l9.63 5.53v11.04L.09 46.69V35.66ZM.1 48.22l9.63 5.54v11.76L.08 59.98V48.22ZM21.56 84l-9.69-5.57 37.74-21.7 9.7 5.57L21.56 84ZM11.1 77.47 48.98 55.7V44.67L11.1 66.44v11.03ZM26.3 55.97l22.6-12.99V31.95l-22.6 13v11.02ZM34.96 38.53l14-8.04V19.46l-14 8.04v11.03ZM60 61.3l-9.75-5.6V44.67l9.75 5.6v11.04ZM59.9 48.6l-9.63-5.54V32.02l9.64 5.54v11.03ZM59.9 36.03l-9.63-5.54V18.94l9.64 5.54v11.55Z"></path>
</svg>