<svg xmlns:xlink="http://www.w3.org/1999/xlink" xmlns="http://www.w3.org/2000/svg" width="128" height="20" viewBox="0 0 128 20" fill="none">
<path d="M20.3394 2.86355C18.4211 4.75406 17.4758 7.08938 17.4758 9.84173C17.4758 12.5941 18.4211 14.9294 20.3394 16.8477C22.2577 18.7382 24.6486 19.6835 27.4844 19.6835C30.3201 19.6835 32.6832 18.7382 34.6015 16.8477C36.5199 14.9294 37.4929 12.5941 37.4929 9.84173C37.4929 7.08938 36.5199 4.75406 34.6015 2.86355C32.6832 0.94525 30.3201 0 27.4844 0C24.6486 0 22.2577 0.94525 20.3394 2.86355ZM23.7312 13.7339C22.7303 12.6497 22.2299 11.3708 22.2299 9.84173C22.2299 8.31265 22.7303 7.03378 23.7312 5.97732C24.732 4.89306 25.9831 4.36483 27.4844 4.36483C28.9856 4.36483 30.2367 4.89306 31.2376 5.97732C32.2384 7.03378 32.7388 8.31265 32.7388 9.84173C32.7388 11.3708 32.2384 12.6497 31.2376 13.7339C30.2367 14.7904 28.9856 15.3186 27.4844 15.3186C25.9831 15.3186 24.732 14.7904 23.7312 13.7339Z" fill="#5289be"/>
<path d="M60.7799 0.389221H57.2769L50.5768 10.4812L43.8766 0.389221H40.3736V19.2942H45.0721L45.0443 9.75832L49.2701 16.2917V16.3195H51.8834V16.2917L56.0815 9.81393V19.2942H60.7799V0.389221Z" fill="#5289be"/>
<path d="M66.5214 2.86355C64.6031 4.75406 63.6578 7.08938 63.6578 9.84173C63.6578 12.5941 64.6031 14.9294 66.5214 16.8477C68.4397 18.7382 70.8306 19.6835 73.6663 19.6835C76.5021 19.6835 78.8652 18.7382 80.7835 16.8477C82.7018 14.9294 83.6749 12.5941 83.6749 9.84173C83.6749 7.08938 82.7018 4.75406 80.7835 2.86355C78.8652 0.94525 76.5021 0 73.6663 0C70.8306 0 68.4397 0.94525 66.5214 2.86355ZM69.9131 13.7339C68.9123 12.6497 68.4119 11.3708 68.4119 9.84173C68.4119 8.31265 68.9123 7.03378 69.9131 5.97732C70.914 4.89306 72.1651 4.36483 73.6663 4.36483C75.1676 4.36483 76.4187 4.89306 77.4195 5.97732C78.4204 7.03378 78.9208 8.31265 78.9208 9.84173C78.9208 11.3708 78.4204 12.6497 77.4195 13.7339C76.4187 14.7904 75.1676 15.3186 73.6663 15.3186C72.1651 15.3186 70.914 14.7904 69.9131 13.7339Z" fill="#5289be"/>
<path d="M100.22 0.389221H95.4386V11.7322C95.4386 14.0676 94.2987 15.4298 92.5472 15.4298C90.768 15.4298 89.5725 14.3734 89.4613 12.5941H84.7906C84.874 14.846 85.6247 16.5975 86.9869 17.8486C88.3492 19.0996 90.1563 19.7113 92.4082 19.7113C97.3291 19.7113 100.22 16.8477 100.22 11.7322V0.389221Z" fill="#5289be"/>
<path d="M120.6 0.389221H115.874V10.5646C115.874 13.4559 114.262 15.3186 111.787 15.3186C109.313 15.3186 107.728 13.4559 107.728 10.5646V0.389221H103.002V10.4812C103.002 13.4003 103.753 15.6522 105.337 17.2925C106.894 18.905 109.063 19.7113 111.787 19.7113C114.512 19.7113 116.652 18.905 118.237 17.2925C119.822 15.6522 120.6 13.4003 120.6 10.4812V0.389221Z" fill="#5289be"/>
<path d="M12.2481 0.401855H17.7842L10.3241 9.80993H4.78809L12.2481 0.401855Z" fill="#3CC239"/>
<path d="M12.2481 19.212H17.7842L10.3241 9.80993H4.78809L12.2481 19.212Z" fill="#3CC239"/>
<path d="M4.61704 0.4021H0V19.2123H4.61704V0.4021Z" fill="#5289be"/>
<path d="M123.774 0.925384C123.395 1.2884 123.203 1.73683 123.203 2.27602C123.203 2.81521 123.395 3.26364 123.774 3.62666C124.153 3.98967 124.612 4.17118 125.146 4.17118C125.68 4.17118 126.139 3.98967 126.518 3.62666C126.897 3.26364 127.089 2.81521 127.089 2.27602C127.089 1.73683 126.897 1.2884 126.518 0.925384C126.139 0.562368 125.68 0.380859 125.146 0.380859C124.612 0.380859 124.153 0.562368 123.774 0.925384ZM125.141 3.69072C124.751 3.69072 124.414 3.55192 124.132 3.27965C123.849 3.00739 123.704 2.67107 123.704 2.27602C123.704 1.88097 123.849 1.54465 124.132 1.27239C124.414 1.00012 124.751 0.861323 125.141 0.861323C125.53 0.861323 125.872 1.00012 126.155 1.27239C126.438 1.54465 126.582 1.88097 126.582 2.27602C126.582 2.67107 126.438 3.00739 126.155 3.27965C125.872 3.55192 125.53 3.69072 125.141 3.69072ZM125.151 1.93436C125.306 1.93436 125.407 1.99842 125.455 2.13188H126.021C125.963 1.7048 125.616 1.41652 125.151 1.41652C124.89 1.41652 124.676 1.4966 124.505 1.66209C124.34 1.82759 124.254 2.03045 124.254 2.28136C124.254 2.52693 124.34 2.72979 124.505 2.89528C124.676 3.06078 124.89 3.14085 125.151 3.14085C125.381 3.14085 125.573 3.07679 125.733 2.94333C125.899 2.80987 125.995 2.63904 126.021 2.43084H125.455C125.413 2.54294 125.295 2.62836 125.151 2.62836C124.943 2.62836 124.804 2.47354 124.804 2.28136C124.804 2.08383 124.943 1.93436 125.151 1.93436Z" fill="#5289be"/>
</svg>